# xmcd
#
# Track frame offsets:
#	187
#	23600
#	50280
#
# Disc length: 980 seconds
#
# Revision: 1
# Processed by: cddbd v1.5PL3 Copyright (c) Steve Scherf et al.
# Submitted via: CDex 1.50Beta5
#
DISCID=1703d203
DTITLE=松阪晶子 - 願いが届くドア
DYEAR=1900
DGENRE=Pop
TTITLE0=願いが届くドア
TTITLE1=桜の想い
TTITLE2=願いが届くドア(Original Karaoke)
EXTD=
EXTT0=
EXTT1=
EXTT2=
PLAYORDER=
